<svg xmlns="http://www.w3.org/2000/svg" version="1.0" preserveAspectRatio="xMidYMid meet" viewBox="35 4199.5 9929.7 1630.42">

<g transform="translate(0.000000,10000.000000) scale(0.100000,-0.100000)" fill="#000000" stroke="none">
<path d="M66539 58000 c-1358 -50 -2371 -292 -3136 -752 -633 -379 -1098 -894 -1448 -1603 -449 -909 -696 -2131 -790 -3905 -34 -661 -40 -925 -39 -1925 0 -1616 42 -2476 164 -3430 280 -2182 979 -3421 2300 -4081 720 -359 1635 -549 2865 -594 909 -33 1832 23 2535 156 1326 250 2227 794 2822 1704 599 914 917 2229 1023 4220 33 640 39 924 38 1835 -2 1318 -26 2106 -89 2880 -170 2107 -628 3412 -1490 4245 -786 759 -1921 1151 -3589 1240 -273 14 -902 20 -1166 10z m761 -2590 c618 -65 1027 -346 1275 -875 152 -323 260 -784 319 -1370 71 -696 90 -1574 83 -3813 -5 -1489 -10 -1751 -42 -2277 -78 -1254 -279 -1941 -687 -2354 -291 -293 -691 -431 -1253 -431 -906 0 -1429 372 -1700 1211 -175 543 -255 1244 -285 2504 -15 631 -16 3352 -2 3810 47 1450 159 2177 418 2715 87 179 176 311 295 434 243 253 532 388 942 441 123 15 505 19 637 5z"/>
<path d="M350 57632 c0 -5 623 -3504 1385 -7776 762 -4273 1385 -7772 1385 -7777 0 -5 956 -9 2284 -9 l2283 0 15 78 c9 42 537 2801 1174 6131 844 4409 1161 6046 1166 6025 5 -16 420 -2765 923 -6109 504 -3344 918 -6090 920 -6103 l5 -22 2282 2 2282 3 1518 7775 c834 4276 1518 7778 1518 7783 0 4 -785 7 -1744 7 l-1744 0 -6 -37 c-4 -21 -366 -2670 -806 -5888 -440 -3217 -806 -5888 -812 -5935 -9 -66 -13 -78 -18 -55 -4 17 -440 2704 -971 5972 l-964 5943 -2271 0 -2271 0 -15 -82 c-9 -46 -483 -2733 -1054 -5972 -728 -4125 -1041 -5878 -1045 -5855 -4 19 -339 2706 -745 5972 l-739 5937 -1967 0 c-1083 0 -1968 -4 -1968 -8z"/>
<path d="M23575 57613 c-3 -16 -936 -3506 -2071 -7758 -1136 -4251 -2068 -7742 -2071 -7757 l-5 -28 1960 0 1960 0 15 68 c26 113 747 3146 753 3165 5 16 113 17 2083 17 l2079 0 11 -44 c6 -24 177 -744 381 -1600 203 -855 372 -1567 376 -1581 l6 -25 2025 0 c1616 0 2024 3 2021 13 -3 6 -943 3510 -2089 7785 l-2083 7772 -2672 0 -2672 0 -7 -27z m3358 -6253 c437 -1900 798 -3470 802 -3487 l7 -33 -1597 0 c-1516 0 -1596 1 -1591 18 3 9 354 1583 781 3497 427 1914 779 3489 782 3500 6 17 7 16 14 -10 5 -16 366 -1585 802 -3485z"/>
<path d="M34700 49855 l0 -7785 1935 0 1935 0 2 3143 3 3142 715 -1 c742 -1 872 -7 1125 -50 824 -139 1149 -557 1275 -1639 23 -206 56 -625 71 -910 5 -115 14 -633 19 -1150 5 -517 14 -1014 19 -1105 29 -459 65 -795 142 -1342 l12 -88 2005 0 2004 0 -6 23 c-4 12 -29 119 -56 237 -115 503 -173 912 -200 1410 -27 518 -32 711 -40 1595 -11 1175 -26 1517 -86 1965 -62 467 -153 797 -304 1105 -142 290 -295 481 -540 672 -335 262 -864 444 -1530 528 -213 27 -209 24 -100 50 390 91 682 191 975 335 886 435 1408 1170 1610 2265 116 628 133 1435 45 2135 -121 965 -466 1708 -1028 2217 -625 564 -1489 872 -2762 983 -506 44 -448 43 -3907 47 l-3333 4 0 -7786z m5330 5215 c772 -36 1266 -256 1558 -694 178 -265 275 -572 324 -1021 21 -189 17 -736 -5 -905 -101 -749 -412 -1208 -988 -1453 -223 -95 -430 -145 -749 -183 -108 -13 -288 -17 -907 -21 l-773 -5 0 2146 0 2146 663 0 c364 0 759 -5 877 -10z"/>
<path d="M48440 49855 l0 -7785 2983 0 c1801 0 3085 4 3242 10 496 19 837 44 1165 86 1445 183 2357 663 2900 1525 91 144 234 436 295 599 242 653 344 1507 295 2481 -71 1418 -461 2317 -1247 2877 -295 210 -691 389 -1096 497 -161 42 -422 99 -536 116 -97 15 -91 20 49 44 159 27 455 103 640 165 481 161 890 406 1186 711 484 501 745 1164 826 2104 16 186 16 765 -1 970 -51 645 -172 1128 -395 1572 -154 308 -295 503 -541 748 -404 404 -950 689 -1646 860 -381 93 -717 141 -1309 187 -102 8 -1131 12 -3477 15 l-3333 4 0 -7786z m5402 5277 c530 -67 891 -209 1151 -452 191 -179 324 -408 401 -690 108 -399 112 -997 9 -1435 -75 -320 -196 -555 -391 -757 -117 -121 -231 -203 -397 -283 -231 -113 -462 -175 -825 -222 -102 -13 -266 -16 -877 -20 l-753 -4 0 1946 0 1946 758 -4 c695 -4 771 -6 924 -25z m-12 -6286 c432 -50 813 -174 1045 -340 103 -74 240 -210 311 -308 161 -223 262 -527 311 -928 22 -183 25 -749 5 -940 -48 -461 -150 -794 -323 -1055 -70 -105 -252 -287 -354 -353 -209 -137 -479 -232 -800 -282 -251 -39 -332 -42 -1102 -47 l-763 -5 0 2142 0 2141 763 -4 c633 -3 787 -7 907 -21z"/>
<path d="M75270 49855 l0 -7786 2868 4 c2964 4 2968 4 3522 47 2180 169 3470 797 4181 2035 372 648 604 1504 723 2665 93 909 121 1794 113 3610 -5 1149 -12 1453 -47 1990 -64 982 -183 1715 -377 2330 -588 1857 -1950 2680 -4728 2855 -496 31 -935 35 -3587 35 l-2668 0 0 -7785z m5390 5181 c498 -57 841 -178 1134 -400 525 -397 805 -1122 921 -2386 54 -590 69 -1136 69 -2390 0 -1221 -12 -1650 -60 -2225 -116 -1400 -447 -2196 -1089 -2620 -203 -134 -403 -217 -670 -280 -279 -65 -435 -75 -1187 -75 l-648 0 0 5201 0 5201 693 -5 c556 -4 721 -8 837 -21z"/>
<path d="M87050 57598 c10 -24 1002 -2376 2204 -5227 l2186 -5185 0 -2558 0 -2558 1945 0 1945 0 0 2559 0 2559 2156 5213 c1186 2868 2159 5220 2161 5227 4 10 -390 12 -1967 10 l-1973 -3 -1191 -3502 c-655 -1926 -1194 -3499 -1197 -3495 -3 4 -494 1581 -1090 3504 l-1084 3498 -2057 0 -2057 0 19 -42z"/>
</g>
</svg>