<svg xmlns="http://www.w3.org/2000/svg" xmlns:xlink="http://www.w3.org/1999/xlink" version="1.1" style="shape-rendering:geometricPrecision; text-rendering:geometricPrecision; image-rendering:optimizeQuality; fill-rule:evenodd; clip-rule:evenodd" viewBox="85.5 3108.88 7335 1038.69">
<g><path style="opacity:0.995" fill="#000000" d="M 4947.5,3109.5 C 5125.68,3101.79 5271.52,3166.13 5385,3302.5C 5462.67,3398.32 5501.17,3508.32 5500.5,3632.5C 5500.74,3763.68 5457.24,3877.68 5370,3974.5C 5235.3,4117.01 5070.8,4171.51 4876.5,4138C 4783.04,4119.1 4701.37,4077.77 4631.5,4014C 4503.98,3895.84 4447.81,3749.68 4463,3575.5C 4474.52,3460.8 4519.19,3361.47 4597,3277.5C 4652.92,3216.58 4719.42,3171.08 4796.5,3141C 4845.4,3123.02 4895.73,3112.52 4947.5,3109.5 Z M 4958.5,3313.5 C 5089.64,3309.29 5186.14,3364.63 5248,3479.5C 5279.6,3546.38 5289.27,3616.38 5277,3689.5C 5258.83,3784.41 5208.66,3856.91 5126.5,3907C 5061.48,3941.05 4992.81,3951.38 4920.5,3938C 4856.16,3924.75 4802.33,3893.59 4759,3844.5C 4699.75,3775.75 4673.42,3695.75 4680,3604.5C 4689.47,3493.32 4741.31,3408.48 4835.5,3350C 4873.99,3328.97 4914.99,3316.8 4958.5,3313.5 Z"/></g>
<g><path style="opacity:0.995" fill="#000000" d="M 5608.5,3117.5 C 5740.83,3117.33 5873.17,3117.5 6005.5,3118C 6156.87,3121.12 6283.37,3178.29 6385,3289.5C 6472.02,3386.15 6515.52,3499.98 6515.5,3631C 6514.66,3784.69 6456.66,3911.69 6341.5,4012C 6246.52,4092.93 6136.19,4134.6 6010.5,4137C 5876.5,4137.5 5742.5,4137.67 5608.5,4137.5C 5608.5,3797.5 5608.5,3457.5 5608.5,3117.5 Z M 5828.5,3321.5 C 5889.17,3321.33 5949.83,3321.5 6010.5,3322C 6125.26,3327.25 6210.76,3379.42 6267,3478.5C 6295.37,3537.37 6306.03,3599.37 6299,3664.5C 6287.73,3768.32 6237.23,3846.15 6147.5,3898C 6104.48,3919.84 6058.81,3931.51 6010.5,3933C 5949.83,3933.5 5889.17,3933.67 5828.5,3933.5C 5828.5,3729.5 5828.5,3525.5 5828.5,3321.5 Z"/></g>
<g><path style="opacity:0.995" fill="#000000" d="M 85.5,3119.5 C 160.833,3119.5 236.167,3119.5 311.5,3119.5C 361.782,3388.53 412.282,3657.53 463,3926.5C 517,3657.83 571,3389.17 625,3120.5C 732.763,3119.5 840.596,3119.17 948.5,3119.5C 1000.14,3387.19 1051.97,3654.86 1104,3922.5C 1154.92,3655.22 1205.59,3387.89 1256,3120.5C 1331.1,3119.5 1406.26,3119.17 1481.5,3119.5C 1411.15,3457.91 1340.31,3796.25 1269,4134.5C 1161.24,4135.5 1053.4,4135.83 945.5,4135.5C 892.897,3851.99 839.73,3568.66 786,3285.5C 731.228,3568.86 676.395,3852.19 621.5,4135.5C 513.831,4135.83 406.165,4135.5 298.5,4134.5C 226.859,3796.3 155.859,3457.96 85.5,3119.5 Z"/></g>
<g><path style="opacity:0.995" fill="#000000" d="M 1816.5,3119.5 C 1927.17,3119.17 2037.84,3119.5 2148.5,3120.5C 2261.07,3458.72 2373.74,3796.89 2486.5,4135C 2411.17,4135.67 2335.83,4135.67 2260.5,4135C 2238.74,4068.55 2217.07,4002.05 2195.5,3935.5C 2052.17,3934.33 1908.83,3934.17 1765.5,3935C 1743.07,4001.45 1720.74,4067.95 1698.5,4134.5C 1622.5,4135.67 1546.5,4135.83 1470.5,4135C 1586.13,3796.6 1701.47,3458.1 1816.5,3119.5 Z M 1981.5,3273.5 C 1983.31,3275.39 1984.48,3277.72 1985,3280.5C 2033.44,3432.48 2082.27,3584.32 2131.5,3736C 2030.83,3736.5 1930.17,3736.67 1829.5,3736.5C 1880.17,3582.17 1930.83,3427.83 1981.5,3273.5 Z"/></g>
<g><path style="opacity:0.995" fill="#000000" d="M 2594.5,3119.5 C 2756.17,3119.33 2917.83,3119.5 3079.5,3120C 3169.84,3125.18 3247.17,3159.18 3311.5,3222C 3402.46,3312.96 3434.96,3421.79 3409,3548.5C 3386.07,3636.61 3336.23,3704.78 3259.5,3753C 3245.22,3760.97 3230.56,3768.14 3215.5,3774.5C 3287.83,3894.5 3360.17,4014.5 3432.5,4134.5C 3349.84,4135.67 3267.17,4135.83 3184.5,4135C 3117.25,4024.5 3050.25,3913.83 2983.5,3803C 2926.83,3802.5 2870.17,3802.33 2813.5,3802.5C 2813.5,3913.5 2813.5,4024.5 2813.5,4135.5C 2740.5,4135.5 2667.5,4135.5 2594.5,4135.5C 2594.5,3796.83 2594.5,3458.17 2594.5,3119.5 Z M 2813.5,3316.5 C 2899.83,3316.33 2986.17,3316.5 3072.5,3317C 3120.83,3322.4 3158.33,3345.23 3185,3385.5C 3207.5,3424.64 3212.5,3465.98 3200,3509.5C 3177.84,3569.51 3135,3603.67 3071.5,3612C 2985.5,3612.5 2899.5,3612.67 2813.5,3612.5C 2813.5,3513.83 2813.5,3415.17 2813.5,3316.5 Z"/></g>
<g><path style="opacity:0.995" fill="#000000" d="M 3554.5,3119.5 C 3720.5,3119.33 3886.5,3119.5 4052.5,3120C 4113.16,3121.91 4169.49,3138.24 4221.5,3169C 4320.19,3235.3 4359.69,3327.47 4340,3445.5C 4326.81,3506.62 4296.98,3557.78 4250.5,3599C 4242.5,3605 4234.5,3611 4226.5,3617C 4316.28,3657.33 4369.45,3726.16 4386,3823.5C 4398.85,3942.29 4354.35,4032.12 4252.5,4093C 4204.59,4118.06 4153.59,4132.06 4099.5,4135C 3917.83,4135.5 3736.17,4135.67 3554.5,4135.5C 3554.5,3796.83 3554.5,3458.17 3554.5,3119.5 Z M 3766.5,3316.5 C 3855.83,3316.33 3945.17,3316.5 4034.5,3317C 4079.02,3322.51 4110.52,3345.67 4129,3386.5C 4146.8,3440.48 4133.63,3485.31 4089.5,3521C 4072.32,3532.62 4053.32,3539.28 4032.5,3541C 3943.83,3541.5 3855.17,3541.67 3766.5,3541.5C 3766.5,3466.5 3766.5,3391.5 3766.5,3316.5 Z M 3766.5,3717.5 C 3860.83,3717.33 3955.17,3717.5 4049.5,3718C 4101.19,3718.91 4137.69,3742.74 4159,3789.5C 4176.18,3844.6 4161.34,3888.77 4114.5,3922C 4094.79,3933.57 4073.45,3939.24 4050.5,3939C 3955.83,3939.5 3861.17,3939.67 3766.5,3939.5C 3766.5,3865.5 3766.5,3791.5 3766.5,3717.5 Z"/></g>
<g><path style="opacity:0.995" fill="#000000" d="M 6514.5,3119.5 C 6592.4,3119.17 6670.24,3119.5 6748,3120.5C 6821,3271.83 6894,3423.17 6967,3574.5C 7040.71,3423.37 7114.04,3272.04 7187,3120.5C 7264.77,3119.17 7342.6,3119.17 7420.5,3120.5C 7307,3352.83 7193.5,3585.17 7080,3817.5C 7079.5,3923.5 7079.33,4029.5 7079.5,4135.5C 7006.17,4135.5 6932.83,4135.5 6859.5,4135.5C 6859.67,4031.17 6859.5,3926.83 6859,3822.5C 6743.61,3588.38 6628.77,3354.05 6514.5,3119.5 Z"/></g>
</svg>