<svg xmlns="http://www.w3.org/2000/svg" version="1.0" preserveAspectRatio="xMidYMid meet" viewBox="41 3019.19 7425 1189.26">

<g transform="translate(0.000000,7500.000000) scale(0.100000,-0.100000)" fill="#ffffff" stroke="none">
<path d="M49460 44799 c-509 -43 -886 -116 -1303 -253 -480 -158 -951 -400 -1340 -687 -397 -295 -761 -664 -1043 -1059 -489 -683 -819 -1489 -983 -2395 -192 -1062 -167 -2361 66 -3360 180 -776 500 -1498 928 -2100 635 -893 1570 -1547 2625 -1839 639 -176 1341 -232 2030 -160 897 92 1726 411 2435 934 315 232 679 586 921 895 613 781 1014 1779 1169 2910 86 630 101 1386 40 2055 -100 1084 -408 2039 -917 2838 -456 716 -1116 1316 -1856 1686 -740 370 -1524 548 -2397 544 -154 0 -323 -4 -375 -9z m707 -1954 c404 -53 761 -186 1088 -407 314 -212 588 -532 803 -938 290 -549 439 -1130 502 -1970 18 -239 24 -820 11 -1085 -45 -921 -187 -1548 -480 -2135 -130 -259 -232 -416 -402 -620 -366 -439 -905 -726 -1514 -808 -159 -21 -479 -21 -640 1 -477 63 -921 257 -1263 554 -434 376 -792 1012 -957 1698 -127 529 -178 1029 -178 1745 0 774 69 1374 217 1890 179 622 516 1192 894 1513 357 303 796 495 1283 561 145 20 488 20 636 1z" fill="#ffffff"/>
<path d="M15491 38903 c-788 -3167 -1435 -5768 -1438 -5781 l-5 -22 1243 2 1244 3 301 1305 c165 718 304 1317 307 1333 l7 27 1690 0 c1599 0 1689 -1 1694 -17 3 -10 140 -609 305 -1332 165 -722 302 -1315 304 -1317 2 -2 562 -3 1244 -2 l1239 3 -1430 5778 -1430 5777 -1921 0 -1921 0 -1433 -5757z m3985 1494 l621 -2722 -1250 -3 c-688 -1 -1252 0 -1254 2 -3 2 278 1230 624 2729 345 1499 630 2723 633 2721 2 -3 284 -1230 626 -2727z" fill="#ffffff"/>
<path d="M410 44628 c0 -14 1679 -11476 1685 -11506 l5 -22 1862 2 1862 3 712 4511 c391 2482 714 4518 717 4525 4 11 6 11 6 -1 1 -18 1399 -8975 1407 -9012 l6 -28 1861 0 1862 0 839 5738 c461 3155 841 5752 844 5770 l5 32 -1246 0 -1246 0 -6 -32 c-3 -18 -248 -2213 -545 -4877 -297 -2665 -542 -4846 -543 -4848 -4 -4 97 -571 -878 4935 l-853 4822 -1516 0 -1515 0 -864 -4863 c-988 -5561 -873 -4918 -876 -4915 -2 2 -247 2202 -546 4891 l-544 4887 -1247 0 c-935 0 -1248 -3 -1248 -12z" fill="#ffffff"/>
<path d="M24970 38870 l0 -5770 1185 0 1185 0 0 2255 0 2255 978 0 c603 0 1011 -4 1067 -10 198 -23 372 -69 522 -140 325 -152 545 -457 622 -860 11 -58 23 -121 26 -140 4 -19 10 -595 14 -1280 7 -1080 10 -1262 24 -1373 37 -277 82 -455 154 -609 l46 -98 1218 0 1218 0 -35 53 c-88 134 -149 377 -185 742 -8 82 -14 566 -19 1525 -7 1512 -5 1449 -60 1705 -95 437 -340 816 -691 1067 -231 165 -625 310 -964 353 -71 9 -131 18 -133 19 -1 2 24 6 57 10 172 20 430 109 625 218 386 213 684 491 933 868 266 404 402 776 469 1290 22 168 30 638 15 840 -58 755 -279 1345 -679 1810 -540 627 -1327 953 -2487 1030 -92 6 -1102 10 -2627 10 l-2478 0 0 -5770z m4318 3889 c557 -41 979 -261 1229 -642 160 -244 234 -526 234 -897 1 -257 -24 -428 -91 -632 -90 -274 -216 -476 -418 -670 -252 -241 -574 -383 -952 -418 -75 -7 -431 -10 -1030 -8 l-915 3 -3 1638 -2 1637 901 0 c546 0 958 -4 1047 -11z" fill="#ffffff"/>
<path d="M34940 38870 l0 -5770 2363 0 c1326 0 2450 5 2562 10 800 38 1452 193 1940 463 538 298 907 670 1148 1159 246 498 357 1006 357 1643 0 677 -129 1181 -407 1599 -257 383 -559 651 -948 841 -322 157 -709 268 -1015 293 -114 9 -110 12 45 36 437 67 949 343 1285 692 401 417 634 908 722 1526 30 210 33 720 5 928 -112 830 -496 1444 -1143 1830 -396 236 -839 381 -1396 459 -414 58 -233 55 -2985 58 l-2533 4 0 -5771z m4375 3871 c445 -59 755 -188 966 -400 206 -208 305 -455 325 -810 18 -326 -63 -653 -219 -886 -216 -322 -535 -518 -988 -609 -245 -49 -237 -49 -1206 -53 l-923 -4 0 1391 0 1391 978 -4 c680 -3 1004 -8 1067 -16z m25 -4655 c305 -50 471 -100 675 -202 427 -212 688 -544 785 -999 28 -129 39 -460 20 -598 -34 -257 -102 -444 -228 -633 -255 -379 -665 -590 -1274 -654 -59 -6 -481 -10 -1073 -10 l-975 0 0 1560 0 1561 983 -4 c879 -3 993 -5 1087 -21z" fill="#ffffff"/>
<path d="M56650 38870 l0 -5771 2043 4 c2080 4 2090 4 2412 43 971 116 1871 514 2590 1145 957 840 1578 2072 1774 3524 124 910 86 1892 -105 2730 -344 1516 -1159 2696 -2350 3406 -244 145 -635 326 -884 411 -448 151 -863 232 -1378 267 -98 7 -851 11 -2127 11 l-1975 0 0 -5770z m3755 3870 c477 -55 899 -228 1320 -540 123 -91 415 -381 515 -510 389 -506 640 -1102 759 -1807 101 -589 101 -1382 0 -1988 -121 -726 -384 -1345 -799 -1877 -83 -106 -340 -364 -450 -452 -198 -157 -515 -339 -726 -415 -192 -70 -414 -124 -624 -152 -51 -7 -329 -13 -697 -16 l-613 -5 0 3891 0 3891 573 0 c504 0 592 -2 742 -20z" fill="#ffffff"/>
<path d="M65584 44608 c7 -18 756 -1721 1665 -3785 l1651 -3752 0 -1985 0 -1986 1210 0 1210 0 0 1989 0 1988 1670 3778 c919 2078 1670 3779 1670 3781 0 2 -578 4 -1284 4 l-1284 0 -34 -87 c-18 -49 -463 -1196 -988 -2551 -671 -1728 -957 -2457 -963 -2445 -4 10 -450 1157 -990 2548 l-982 2530 -1283 3 -1282 2 14 -32z" fill="#ffffff"/>
</g>
</svg>