<svg xmlns="http://www.w3.org/2000/svg" version="1.0" preserveAspectRatio="xMidYMid meet" viewBox="43 1949.42 4916 854.54">

<g transform="translate(0.000000,5000.000000) scale(0.100000,-0.100000)" fill="#000000" stroke="none">
<path d="M33065 30500 c-794 -65 -1281 -256 -1685 -660 -238 -237 -406 -527 -534 -920 -171 -521 -228 -1026 -258 -2272 -20 -838 11 -1771 78 -2343 60 -519 202 -990 395 -1313 273 -456 698 -763 1254 -907 487 -126 1123 -158 1750 -89 649 71 1119 266 1477 612 175 169 280 310 387 521 199 391 303 793 355 1376 44 491 56 758 63 1425 10 1033 -35 1986 -118 2470 -63 368 -176 720 -316 980 -275 509 -723 850 -1321 1005 -334 87 -582 115 -1052 120 -201 2 -414 0 -475 -5z m679 -1220 c228 -51 365 -137 496 -312 177 -235 275 -580 320 -1133 39 -485 39 -2652 0 -3165 -33 -424 -109 -767 -217 -985 -136 -272 -306 -415 -578 -486 -83 -22 -109 -24 -325 -24 -209 1 -243 3 -312 22 -196 55 -318 132 -431 273 -218 272 -323 682 -359 1401 -17 337 -17 2345 0 2679 41 815 163 1246 427 1515 127 128 291 204 508 235 103 15 370 4 471 -20z"/>
<path d="M430 30333 c0 -9 1598 -8144 1607 -8180 l5 -23 993 0 994 0 10 53 c6 28 299 1503 651 3276 352 1773 642 3226 644 3228 5 5 -44 296 552 -3305 l539 -3252 1000 2 1000 3 862 4100 c474 2255 862 4101 862 4103 1 1 -356 2 -793 2 l-794 0 -6 -27 c-3 -16 -236 -1472 -516 -3238 -281 -1765 -513 -3211 -514 -3213 -2 -2 -9 27 -15 65 -7 37 -259 1495 -560 3238 l-548 3170 -1000 3 -1001 2 -7 -37 c-5 -32 -1182 -6207 -1217 -6386 -6 -32 -12 -56 -14 -54 -2 2 -213 1448 -469 3213 -256 1765 -468 3221 -471 3237 l-6 27 -894 0 c-492 0 -894 -3 -894 -7z"/>
<path d="M12265 30313 c-4 -16 -508 -1859 -1121 -4096 -613 -2238 -1114 -4072 -1114 -4078 0 -6 323 -8 862 -7 l862 3 224 903 224 902 1189 0 1188 0 10 -37 c6 -21 108 -428 227 -905 l216 -868 889 0 c572 0 889 3 889 10 0 5 -501 1840 -1114 4078 -613 2238 -1118 4081 -1121 4095 l-7 27 -1148 0 -1148 0 -7 -27z m1564 -3276 c243 -1039 441 -1890 441 -1893 0 -2 -401 -4 -891 -4 -843 0 -890 1 -885 18 3 9 197 874 431 1922 234 1048 429 1914 432 1925 8 26 -32 195 472 -1968z"/>
<path d="M17610 26235 l0 -4105 860 0 860 0 0 1721 0 1721 443 -5 c346 -3 464 -8 542 -21 256 -42 388 -97 501 -210 135 -135 200 -301 248 -628 36 -240 66 -840 66 -1308 0 -475 22 -830 71 -1133 l22 -137 897 0 897 0 -19 98 c-86 456 -117 801 -138 1562 -32 1185 -72 1493 -236 1810 -176 339 -463 508 -974 573 l-105 13 90 22 c371 93 631 234 851 465 246 256 379 585 441 1087 25 202 25 675 -1 880 -46 380 -142 670 -305 915 -161 245 -345 402 -624 535 -243 116 -487 173 -932 220 -244 25 -540 30 -1957 30 l-1498 0 0 -4105z m2725 2881 c460 -74 717 -277 819 -646 67 -241 73 -648 15 -934 -81 -399 -262 -604 -629 -709 -203 -59 -464 -80 -930 -75 l-295 3 -3 1180 c-1 649 0 1186 3 1194 8 21 879 10 1020 -13z"/>
<path d="M24340 26234 l0 -4105 1468 4 c1472 4 1545 6 1877 42 433 48 710 120 985 256 178 88 300 171 417 282 303 290 472 667 540 1208 24 192 24 739 0 929 -65 515 -215 881 -461 1125 -222 221 -517 359 -981 458 l-60 13 75 18 c254 62 480 156 656 275 337 225 536 542 628 1001 91 455 63 1030 -69 1425 -38 112 -144 325 -209 420 -257 373 -637 593 -1181 684 -408 68 -476 71 -2172 71 l-1513 0 0 -4106z m2525 2906 c361 -26 526 -79 705 -223 218 -177 324 -494 307 -922 -18 -454 -139 -718 -400 -871 -118 -69 -239 -108 -437 -140 -84 -13 -196 -18 -562 -21 l-458 -5 0 1096 0 1096 353 0 c193 0 415 -5 492 -10z m-70 -3350 c295 -19 470 -58 650 -145 128 -63 205 -120 274 -207 57 -71 119 -191 151 -288 90 -282 100 -767 20 -1080 -102 -402 -370 -638 -807 -710 -189 -31 -351 -40 -719 -40 l-344 0 0 1240 0 1240 308 0 c169 0 379 -5 467 -10z"/>
<path d="M37640 26235 l0 -4106 1458 4 c1012 3 1494 7 1577 16 707 69 1100 184 1485 436 342 223 590 529 753 930 100 243 185 581 221 875 86 692 114 2263 56 3140 -52 783 -142 1210 -337 1608 -186 379 -451 654 -813 846 -265 140 -617 243 -1030 301 -338 47 -376 48 -1912 52 l-1458 4 0 -4106z m2748 2856 c679 -127 979 -591 1052 -1626 32 -468 39 -1791 11 -2250 -41 -668 -135 -1058 -325 -1350 -138 -212 -343 -373 -570 -449 -200 -67 -396 -86 -878 -86 l-328 0 0 2896 0 2896 463 -5 c418 -4 473 -6 575 -26z"/>
<path d="M43373 30333 c3 -5 509 -1195 1126 -2645 l1121 -2638 0 -1460 0 -1460 860 0 860 0 0 1454 0 1455 1125 2646 c619 1456 1125 2649 1125 2651 0 2 -395 4 -879 4 l-878 0 -187 -552 c-867 -2566 -1081 -3196 -1085 -3192 -3 2 -302 845 -666 1872 l-661 1867 -933 3 c-513 1 -930 -1 -928 -5z"/>
</g>
</svg>