<svg xmlns="http://www.w3.org/2000/svg" xmlns:xlink="http://www.w3.org/1999/xlink" version="1.1" style="shape-rendering:geometricPrecision; text-rendering:geometricPrecision; image-rendering:optimizeQuality; fill-rule:evenodd; clip-rule:evenodd" viewBox="161.5 3035.96 7188 2144.09">
<g><path style="opacity:0.995" fill="#000000" d="M 4923.5,3036.5 C 5026.21,3032 5121.87,3055.5 5210.5,3107C 5298.09,3162.98 5361.59,3239.15 5401,3335.5C 5429.91,3407.7 5445.91,3482.7 5449,3560.5C 5454.21,3642.91 5447.21,3724.24 5428,3804.5C 5406.49,3890.2 5367.16,3966.2 5310,4032.5C 5221.14,4127.83 5111.31,4179.67 4980.5,4188C 4874.59,4195.09 4776.25,4171.42 4685.5,4117C 4597.24,4059.73 4533.41,3982.23 4494,3884.5C 4464.88,3812.35 4448.88,3737.35 4446,3659.5C 4440.87,3574.96 4448.53,3491.63 4469,3409.5C 4491.56,3323.35 4532.56,3247.68 4592,3182.5C 4668.09,3104.87 4760.26,3058.03 4868.5,3042C 4886.94,3039.67 4905.27,3037.84 4923.5,3036.5 Z M 4946.5,3225.5 C 5043.15,3228.38 5114.32,3272.04 5160,3356.5C 5186.87,3409.3 5202.53,3465.3 5207,3524.5C 5212.73,3585.52 5212.4,3646.52 5206,3707.5C 5200.29,3774.97 5179.62,3837.3 5144,3894.5C 5105.15,3951.71 5051.32,3985.87 4982.5,3997C 4899.41,4007.09 4829.25,3981.92 4772,3921.5C 4736.89,3878.28 4713.23,3829.28 4701,3774.5C 4689.66,3720.61 4684.16,3666.11 4684.5,3611C 4684.1,3554.5 4689.93,3498.66 4702,3443.5C 4714.49,3390.85 4737.82,3343.85 4772,3302.5C 4810.93,3260.95 4858.76,3236.12 4915.5,3228C 4925.99,3227.15 4936.32,3226.32 4946.5,3225.5 Z"/></g>
<g><path style="opacity:0.995" fill="#000000" d="M 1760.5,3051.5 C 1884.83,3051.5 2009.17,3051.5 2133.5,3051.5C 2225.29,3424.48 2317.62,3797.32 2410.5,4170C 2329.83,4170.83 2249.16,4170.67 2168.5,4169.5C 2148.83,4084.17 2129.17,3998.83 2109.5,3913.5C 2000.5,3912.5 1891.5,3912.17 1782.5,3912.5C 1763.47,3998.3 1743.81,4083.97 1723.5,4169.5C 1642.84,4170.67 1562.17,4170.83 1481.5,4170C 1574.73,3797.24 1667.73,3424.41 1760.5,3051.5 Z M 1946.5,3201.5 C 1987.04,3376.52 2027.38,3551.68 2067.5,3727C 1986.83,3727.67 1906.17,3727.67 1825.5,3727C 1866.4,3551.98 1906.74,3376.82 1946.5,3201.5 Z"/></g>
<g><path style="opacity:0.996" fill="#000000" d="M 161.5,3054.5 C 201.832,3053.83 242.332,3053.5 283,3053.5C 323.878,3053.5 364.545,3054.17 405,3055.5C 439.708,3369.2 474.708,3682.87 510,3996.5C 565.835,3682.15 621.669,3367.82 677.5,3053.5C 775.737,3053.17 873.904,3053.5 972,3054.5C 1027.45,3367.88 1083.12,3681.22 1139,3994.5C 1174.16,3680.86 1209,3367.19 1243.5,3053.5C 1324.5,3053.5 1405.5,3053.5 1486.5,3053.5C 1431.89,3425.79 1377.55,3798.12 1323.5,4170.5C 1202.83,4170.5 1082.17,4170.5 961.5,4170.5C 916.11,3879.16 870.61,3587.83 825,3296.5C 779.026,3587.82 733.192,3879.16 687.5,4170.5C 566.833,4170.5 446.167,4170.5 325.5,4170.5C 271.282,3798.3 216.615,3426.3 161.5,3054.5 Z"/></g>
<g><path style="opacity:0.996" fill="#000000" d="M 2538.5,3053.5 C 2701.83,3053.33 2865.17,3053.5 3028.5,3054C 3084.1,3055.59 3137.43,3067.25 3188.5,3089C 3265.2,3126.4 3313.03,3186.9 3332,3270.5C 3345.57,3334.43 3344.57,3398.09 3329,3461.5C 3309.42,3524.89 3272.25,3575.05 3217.5,3612C 3194.41,3626.71 3169.41,3636.71 3142.5,3642C 3250.17,3655 3308,3715.5 3316,3823.5C 3316.04,3913.18 3316.71,4002.85 3318,4092.5C 3319.13,4113.43 3323.13,4133.76 3330,4153.5C 3332.53,4159.41 3335.7,4164.91 3339.5,4170C 3260.5,4170.67 3181.5,4170.67 3102.5,4170C 3095.16,4156.31 3089.99,4141.81 3087,4126.5C 3084.6,4113.59 3082.94,4100.59 3082,4087.5C 3081.05,4006.15 3080.05,3924.82 3079,3843.5C 3070.48,3780.31 3034.65,3744.48 2971.5,3736C 2960.86,3734.97 2950.19,3734.3 2939.5,3734C 2882.83,3733.5 2826.17,3733.33 2769.5,3733.5C 2769.5,3879.17 2769.5,4024.83 2769.5,4170.5C 2692.5,4170.5 2615.5,4170.5 2538.5,4170.5C 2538.5,3798.17 2538.5,3425.83 2538.5,3053.5 Z M 2769.5,3235.5 C 2832.17,3235.33 2894.83,3235.5 2957.5,3236C 3000.24,3237.97 3036.41,3254.13 3066,3284.5C 3089.02,3313.89 3099.85,3347.39 3098.5,3385C 3099.94,3440.43 3079.61,3485.76 3037.5,3521C 3013.15,3538.9 2985.82,3548.9 2955.5,3551C 2893.5,3551.5 2831.5,3551.67 2769.5,3551.5C 2769.5,3446.17 2769.5,3340.83 2769.5,3235.5 Z"/></g>
<g><path style="opacity:0.996" fill="#000000" d="M 3504.5,3053.5 C 3664.17,3053.33 3823.83,3053.5 3983.5,3054C 4036.66,3055.5 4088,3065.83 4137.5,3085C 4225.39,3122.53 4274.56,3189.03 4285,3284.5C 4289.78,3328.79 4286.45,3372.46 4275,3415.5C 4248.73,3498.1 4194.56,3553.27 4112.5,3581C 4100.71,3584.41 4088.71,3586.74 4076.5,3588C 4127.5,3591.66 4174.16,3607.66 4216.5,3636C 4274.47,3679.09 4306.64,3736.93 4313,3809.5C 4320.22,3875.06 4311.56,3938.39 4287,3999.5C 4263.46,4052.71 4226.3,4093.54 4175.5,4122C 4137.37,4143.04 4096.71,4156.71 4053.5,4163C 4030.62,4166.53 4007.62,4168.87 3984.5,4170C 3824.5,4170.5 3664.5,4170.67 3504.5,4170.5C 3504.5,3798.17 3504.5,3425.83 3504.5,3053.5 Z M 3730.5,3235.5 C 3791.84,3235.11 3853.18,3235.61 3914.5,3237C 3942.53,3238.34 3969.19,3245.01 3994.5,3257C 4027.6,3274.99 4046.43,3302.82 4051,3340.5C 4055.7,3373.59 4050.37,3404.92 4035,3434.5C 4012.81,3469.2 3981.31,3490.37 3940.5,3498C 3925.99,3501.12 3911.32,3503.12 3896.5,3504C 3841.17,3504.5 3785.83,3504.67 3730.5,3504.5C 3730.5,3414.83 3730.5,3325.17 3730.5,3235.5 Z M 3730.5,3685.5 C 3792.85,3685.05 3855.18,3685.55 3917.5,3687C 3956.91,3690.13 3992.57,3703.13 4024.5,3726C 4058.35,3755.82 4075.02,3793.48 4074.5,3839C 4071.93,3917.57 4032.26,3965.23 3955.5,3982C 3946.23,3983.77 3936.89,3985.1 3927.5,3986C 3861.85,3987.44 3796.18,3987.94 3730.5,3987.5C 3730.5,3886.83 3730.5,3786.17 3730.5,3685.5 Z"/></g>
<g><path style="opacity:0.996" fill="#000000" d="M 5604.5,3053.5 C 5735.5,3053.33 5866.5,3053.5 5997.5,3054C 6141.23,3061.94 6258.39,3121.11 6349,3231.5C 6407.7,3309.86 6444.03,3397.86 6458,3495.5C 6472.23,3594.34 6467.89,3692.34 6445,3789.5C 6420.15,3891.42 6369.98,3978.26 6294.5,4050C 6209.65,4124.75 6110.32,4164.75 5996.5,4170C 5865.83,4170.5 5735.17,4170.67 5604.5,4170.5C 5604.5,3798.17 5604.5,3425.83 5604.5,3053.5 Z M 5841.5,3235.5 C 5880.51,3235.15 5919.51,3235.65 5958.5,3237C 6033.6,3244.85 6095.1,3277.69 6143,3335.5C 6185.73,3391.33 6211.73,3454.33 6221,3524.5C 6230.84,3597.72 6227.84,3670.39 6212,3742.5C 6195.85,3809.87 6163.68,3868.04 6115.5,3917C 6069.34,3959.74 6014.67,3983.4 5951.5,3988C 5914.83,3988.5 5878.17,3988.67 5841.5,3988.5C 5841.5,3737.5 5841.5,3486.5 5841.5,3235.5 Z"/></g>
<g><path style="opacity:0.995" fill="#000000" d="M 6467.5,3054.5 C 6550.67,3053.17 6634,3053.17 6717.5,3054.5C 6781.1,3218.13 6844.6,3381.79 6908,3545.5C 6971.93,3381.97 7035.59,3218.31 7099,3054.5C 7182.43,3053.34 7265.93,3053.17 7349.5,3054C 7241.54,3297.43 7133.7,3540.93 7026,3784.5C 7025.5,3913.17 7025.33,4041.83 7025.5,4170.5C 6947.17,4170.5 6868.83,4170.5 6790.5,4170.5C 6790.67,4042.17 6790.5,3913.83 6790,3785.5C 6682.96,3541.52 6575.46,3297.86 6467.5,3054.5 Z"/></g>
<g><path style="opacity:0.984" fill="#000000" d="M 1893.5,4747.5 C 1930.78,4744.18 1966.78,4749.34 2001.5,4763C 2039.47,4780.1 2061.64,4809.26 2068,4850.5C 2069.26,4863.13 2069.76,4875.8 2069.5,4888.5C 2039.83,4888.5 2010.17,4888.5 1980.5,4888.5C 1980.95,4877.4 1980.11,4866.4 1978,4855.5C 1970.92,4833.44 1955.76,4821.27 1932.5,4819C 1919.8,4818.15 1907.13,4818.49 1894.5,4820C 1864.49,4824.88 1850.99,4842.38 1854,4872.5C 1858.78,4886.29 1867.62,4896.79 1880.5,4904C 1888.89,4908.86 1897.55,4913.19 1906.5,4917C 1932.32,4926.27 1957.99,4935.94 1983.5,4946C 2002.11,4953.97 2019.44,4963.97 2035.5,4976C 2061,4998.46 2073.33,5026.79 2072.5,5061C 2071.39,5111.1 2047.72,5145.77 2001.5,5165C 1962.21,5179.08 1921.88,5183.08 1880.5,5177C 1798.71,5163.38 1760.04,5115.21 1764.5,5032.5C 1794.17,5032.5 1823.83,5032.5 1853.5,5032.5C 1851.99,5048.72 1854.16,5064.38 1860,5079.5C 1869.78,5095.91 1884.28,5105.08 1903.5,5107C 1921.41,5108.56 1939.07,5107.22 1956.5,5103C 1982.67,5092.81 1991.17,5074.31 1982,5047.5C 1975.83,5037.33 1967.67,5029.17 1957.5,5023C 1949.99,5018.74 1942.32,5014.74 1934.5,5011C 1908.31,5000.94 1881.98,4991.27 1855.5,4982C 1827.01,4970.53 1803.51,4952.7 1785,4928.5C 1772.37,4909.1 1766.54,4887.77 1767.5,4864.5C 1768.15,4817.36 1789.82,4783.86 1832.5,4764C 1852.15,4755.51 1872.48,4750.01 1893.5,4747.5 Z"/></g>
<g><path style="opacity:0.986" fill="#000000" d="M 2287.5,4747.5 C 2344.1,4742.42 2393.43,4758.59 2435.5,4796C 2472.36,4834.57 2492.19,4880.74 2495,4934.5C 2499.96,4983.8 2492.62,5031.13 2473,5076.5C 2442.72,5136.91 2393.89,5171.08 2326.5,5179C 2257.9,5184.77 2202.4,5160.93 2160,5107.5C 2136.77,5073.81 2123.43,5036.48 2120,4995.5C 2114.69,4947.64 2120.69,4901.31 2138,4856.5C 2167.44,4792.23 2217.27,4755.9 2287.5,4747.5 Z M 2301.5,4818.5 C 2345.14,4818.32 2375.3,4838.32 2392,4878.5C 2402.04,4905.58 2406.54,4933.58 2405.5,4962.5C 2406.62,4991.76 2402.12,5020.09 2392,5047.5C 2372.16,5093.67 2337.33,5113.17 2287.5,5106C 2261.24,5099.4 2241.74,5084.23 2229,5060.5C 2217.48,5037.9 2211.15,5013.9 2210,4988.5C 2208.9,4965.1 2209.57,4941.77 2212,4918.5C 2215.35,4891.07 2225.69,4866.74 2243,4845.5C 2259.36,4829.57 2278.86,4820.57 2301.5,4818.5 Z"/></g>
<g><path style="opacity:0.985" fill="#000000" d="M 5174.5,4747.5 C 5205.71,4744.74 5236.04,4748.58 5265.5,4759C 5315.67,4780.85 5347.51,4818.35 5361,4871.5C 5363.6,4883.37 5365.1,4895.37 5365.5,4907.5C 5335.5,4907.5 5305.5,4907.5 5275.5,4907.5C 5276.33,4877.78 5265.66,4853.28 5243.5,4834C 5209.16,4812.56 5175.49,4813.56 5142.5,4837C 5124.31,4854.87 5112.48,4876.37 5107,4901.5C 5098.36,4942.5 5098.36,4983.5 5107,5024.5C 5112.02,5049.05 5123.19,5070.22 5140.5,5088C 5170.51,5111.42 5202.51,5114.42 5236.5,5097C 5255.95,5084.29 5268.12,5066.46 5273,5043.5C 5274.93,5035.61 5275.76,5027.61 5275.5,5019.5C 5305.5,5019.5 5335.5,5019.5 5365.5,5019.5C 5361.91,5086.23 5330.58,5134.73 5271.5,5165C 5231.56,5180.49 5190.56,5183.83 5148.5,5175C 5099.51,5163.01 5063.01,5134.84 5039,5090.5C 5018.92,5050.42 5009.42,5007.92 5010.5,4963C 5008.8,4909.79 5022.3,4860.96 5051,4816.5C 5081.81,4775.17 5122.98,4752.17 5174.5,4747.5 Z"/></g>
<g><path style="opacity:0.989" fill="#000000" d="M 3893.5,4752.5 C 3940.55,4751.84 3987.38,4752.51 4034,4754.5C 4068.35,4893.55 4102.85,5032.55 4137.5,5171.5C 4106.84,5172.5 4076.17,5172.83 4045.5,5172.5C 4038.37,5140.19 4031.37,5107.86 4024.5,5075.5C 3983.83,5075.33 3943.17,5075.5 3902.5,5076C 3894.62,5108.02 3887.29,5140.19 3880.5,5172.5C 3849.83,5172.83 3819.16,5172.5 3788.5,5171.5C 3823.35,5031.77 3858.35,4892.1 3893.5,4752.5 Z M 3962.5,4812.5 C 3963.65,4812.79 3964.32,4813.62 3964.5,4815C 3978.86,4878.77 3993.53,4942.44 4008.5,5006C 3978.5,5006.5 3948.5,5006.67 3918.5,5006.5C 3933.29,4941.86 3947.96,4877.19 3962.5,4812.5 Z"/></g>
<g><path style="opacity:0.989" fill="#000000" d="M 5489.5,4752.5 C 5536.5,4752.5 5583.5,4752.5 5630.5,4752.5C 5664.78,4892.45 5699.45,5032.28 5734.5,5172C 5703.84,5172.5 5673.17,5172.67 5642.5,5172.5C 5635.65,5140.44 5628.49,5108.44 5621,5076.5C 5600.74,5075.84 5580.41,5075.5 5560,5075.5C 5539.59,5075.5 5519.26,5075.84 5499,5076.5C 5491.88,5108.46 5484.38,5140.29 5476.5,5172C 5446.16,5172.83 5415.83,5172.67 5385.5,5171.5C 5420.64,5031.94 5455.31,4892.27 5489.5,4752.5 Z M 5559.5,4811.5 C 5575.57,4876.12 5590.57,4941.12 5604.5,5006.5C 5574.83,5006.5 5545.17,5006.5 5515.5,5006.5C 5530.33,4941.53 5544.99,4876.53 5559.5,4811.5 Z"/></g>
<g><path style="opacity:0.988" fill="#000000" d="M 2553.5,4753.5 C 2583.17,4753.5 2612.83,4753.5 2642.5,4753.5C 2642.33,4847.17 2642.5,4940.83 2643,5034.5C 2646.38,5093.79 2677.21,5117.29 2735.5,5105C 2754.24,5099.26 2766.74,5087.1 2773,5068.5C 2776.49,5057.43 2778.49,5046.1 2779,5034.5C 2779.5,4940.83 2779.67,4847.17 2779.5,4753.5C 2809.17,4753.5 2838.83,4753.5 2868.5,4753.5C 2868.67,4846.17 2868.5,4938.83 2868,5031.5C 2864.89,5120.61 2819.06,5169.77 2730.5,5179C 2691.05,5182.91 2653.71,5175.91 2618.5,5158C 2582.17,5134.9 2561.34,5101.73 2556,5058.5C 2555.27,5052.17 2554.6,5045.84 2554,5039.5C 2553.5,4944.17 2553.33,4848.83 2553.5,4753.5 Z"/></g>
<g><path style="opacity:0.993" fill="#000000" d="M 2921.5,4753.5 C 3019.5,4753.5 3117.5,4753.5 3215.5,4753.5C 3215.5,4776.5 3215.5,4799.5 3215.5,4822.5C 3181.17,4822.5 3146.83,4822.5 3112.5,4822.5C 3112.5,4939.17 3112.5,5055.83 3112.5,5172.5C 3083.17,5172.5 3053.83,5172.5 3024.5,5172.5C 3024.5,5055.83 3024.5,4939.17 3024.5,4822.5C 2990.17,4822.5 2955.83,4822.5 2921.5,4822.5C 2921.5,4799.5 2921.5,4776.5 2921.5,4753.5 Z"/></g>
<g><path style="opacity:0.992" fill="#000000" d="M 3268.5,4753.5 C 3298.17,4753.5 3327.83,4753.5 3357.5,4753.5C 3357.5,4812.17 3357.5,4870.83 3357.5,4929.5C 3407.83,4929.5 3458.17,4929.5 3508.5,4929.5C 3508.5,4870.83 3508.5,4812.17 3508.5,4753.5C 3538.17,4753.5 3567.83,4753.5 3597.5,4753.5C 3597.5,4893.17 3597.5,5032.83 3597.5,5172.5C 3567.83,5172.5 3538.17,5172.5 3508.5,5172.5C 3508.5,5114.5 3508.5,5056.5 3508.5,4998.5C 3458.17,4998.5 3407.83,4998.5 3357.5,4998.5C 3357.5,5056.5 3357.5,5114.5 3357.5,5172.5C 3327.83,5172.5 3298.17,5172.5 3268.5,5172.5C 3268.5,5032.83 3268.5,4893.17 3268.5,4753.5 Z"/></g>
<g><path style="opacity:0.989" fill="#000000" d="M 4185.5,4753.5 C 4271.5,4753.5 4357.5,4753.5 4443.5,4753.5C 4443.5,4776.5 4443.5,4799.5 4443.5,4822.5C 4387.17,4822.5 4330.83,4822.5 4274.5,4822.5C 4274.5,4859.5 4274.5,4896.5 4274.5,4933.5C 4322.17,4933.5 4369.83,4933.5 4417.5,4933.5C 4417.5,4956.5 4417.5,4979.5 4417.5,5002.5C 4369.83,5002.5 4322.17,5002.5 4274.5,5002.5C 4274.5,5059.17 4274.5,5115.83 4274.5,5172.5C 4244.83,5172.5 4215.17,5172.5 4185.5,5172.5C 4185.5,5032.83 4185.5,4893.17 4185.5,4753.5 Z"/></g>
<g><path style="opacity:0.99" fill="#000000" d="M 4503.5,4753.5 C 4566.5,4753.33 4629.5,4753.5 4692.5,4754C 4765.77,4758.27 4803.43,4796.93 4805.5,4870C 4805.81,4904.75 4793.15,4933.75 4767.5,4957C 4757.06,4965.88 4745.06,4971.55 4731.5,4974C 4768.72,4979.22 4789.89,5000.39 4795,5037.5C 4795.33,5071.83 4795.67,5106.17 4796,5140.5C 4796.47,5148.65 4797.8,5156.65 4800,5164.5C 4801.12,5167.25 4802.62,5169.75 4804.5,5172C 4774.5,5172.67 4744.5,5172.67 4714.5,5172C 4709.73,5162.09 4707.23,5151.59 4707,5140.5C 4706.67,5110.83 4706.33,5081.17 4706,5051.5C 4703.55,5027.4 4690.38,5013.56 4666.5,5010C 4641.17,5009.5 4615.84,5009.33 4590.5,5009.5C 4590.5,5063.83 4590.5,5118.17 4590.5,5172.5C 4561.5,5172.5 4532.5,5172.5 4503.5,5172.5C 4503.5,5032.83 4503.5,4893.17 4503.5,4753.5 Z M 4590.5,4821.5 C 4611.17,4821.33 4631.84,4821.5 4652.5,4822C 4675.21,4820.77 4693.04,4829.27 4706,4847.5C 4717.57,4873.19 4715.23,4897.53 4699,4920.5C 4690.34,4930.41 4679.51,4936.58 4666.5,4939C 4641.19,4940.37 4615.86,4940.87 4590.5,4940.5C 4590.5,4900.83 4590.5,4861.17 4590.5,4821.5 Z"/></g>
<g><path style="opacity:0.987" fill="#000000" d="M 4865.5,4753.5 C 4894.83,4753.5 4924.17,4753.5 4953.5,4753.5C 4953.5,4893.17 4953.5,5032.83 4953.5,5172.5C 4924.17,5172.5 4894.83,5172.5 4865.5,5172.5C 4865.5,5032.83 4865.5,4893.17 4865.5,4753.5 Z"/></g>
</svg>