<svg xmlns="http://www.w3.org/2000/svg" xmlns:xlink="http://www.w3.org/1999/xlink" version="1.1" style="shape-rendering:geometricPrecision; text-rendering:geometricPrecision; image-rendering:optimizeQuality; fill-rule:evenodd; clip-rule:evenodd" viewBox="161.5 3035.96 7188 1978.38">
<g><path style="opacity:0.995" fill="#000000" d="M 4923.5,3036.5 C 5026.21,3032 5121.87,3055.5 5210.5,3107C 5298.09,3162.98 5361.59,3239.15 5401,3335.5C 5429.91,3407.7 5445.91,3482.7 5449,3560.5C 5454.21,3642.91 5447.21,3724.24 5428,3804.5C 5406.49,3890.2 5367.16,3966.2 5310,4032.5C 5221.14,4127.83 5111.31,4179.67 4980.5,4188C 4874.59,4195.09 4776.25,4171.42 4685.5,4117C 4597.24,4059.73 4533.41,3982.23 4494,3884.5C 4464.88,3812.35 4448.88,3737.35 4446,3659.5C 4440.87,3574.96 4448.53,3491.63 4469,3409.5C 4491.56,3323.35 4532.56,3247.68 4592,3182.5C 4668.09,3104.87 4760.26,3058.03 4868.5,3042C 4886.94,3039.67 4905.27,3037.84 4923.5,3036.5 Z M 4946.5,3225.5 C 5043.15,3228.38 5114.32,3272.04 5160,3356.5C 5186.87,3409.3 5202.53,3465.3 5207,3524.5C 5212.73,3585.52 5212.4,3646.52 5206,3707.5C 5200.29,3774.97 5179.62,3837.3 5144,3894.5C 5105.15,3951.71 5051.32,3985.87 4982.5,3997C 4899.41,4007.09 4829.25,3981.92 4772,3921.5C 4736.89,3878.28 4713.23,3829.28 4701,3774.5C 4689.66,3720.61 4684.16,3666.11 4684.5,3611C 4684.1,3554.5 4689.93,3498.66 4702,3443.5C 4714.49,3390.85 4737.82,3343.85 4772,3302.5C 4810.93,3260.95 4858.76,3236.12 4915.5,3228C 4925.99,3227.15 4936.32,3226.32 4946.5,3225.5 Z"/></g>
<g><path style="opacity:0.995" fill="#000000" d="M 1760.5,3051.5 C 1884.83,3051.5 2009.17,3051.5 2133.5,3051.5C 2225.29,3424.48 2317.62,3797.32 2410.5,4170C 2329.83,4170.83 2249.16,4170.67 2168.5,4169.5C 2148.83,4084.17 2129.17,3998.83 2109.5,3913.5C 2000.5,3912.5 1891.5,3912.17 1782.5,3912.5C 1763.47,3998.3 1743.81,4083.97 1723.5,4169.5C 1642.84,4170.67 1562.17,4170.83 1481.5,4170C 1574.73,3797.24 1667.73,3424.41 1760.5,3051.5 Z M 1946.5,3201.5 C 1987.04,3376.52 2027.38,3551.68 2067.5,3727C 1986.83,3727.67 1906.17,3727.67 1825.5,3727C 1866.4,3551.98 1906.74,3376.82 1946.5,3201.5 Z"/></g>
<g><path style="opacity:0.996" fill="#000000" d="M 161.5,3054.5 C 201.832,3053.83 242.332,3053.5 283,3053.5C 323.878,3053.5 364.545,3054.17 405,3055.5C 439.708,3369.2 474.708,3682.87 510,3996.5C 565.835,3682.15 621.669,3367.82 677.5,3053.5C 775.737,3053.17 873.904,3053.5 972,3054.5C 1027.45,3367.88 1083.12,3681.22 1139,3994.5C 1174.16,3680.86 1209,3367.19 1243.5,3053.5C 1324.5,3053.5 1405.5,3053.5 1486.5,3053.5C 1431.89,3425.79 1377.55,3798.12 1323.5,4170.5C 1202.83,4170.5 1082.17,4170.5 961.5,4170.5C 916.11,3879.16 870.61,3587.83 825,3296.5C 779.026,3587.82 733.192,3879.16 687.5,4170.5C 566.833,4170.5 446.167,4170.5 325.5,4170.5C 271.282,3798.3 216.615,3426.3 161.5,3054.5 Z"/></g>
<g><path style="opacity:0.996" fill="#000000" d="M 2538.5,3053.5 C 2701.83,3053.33 2865.17,3053.5 3028.5,3054C 3084.1,3055.59 3137.43,3067.25 3188.5,3089C 3265.2,3126.4 3313.03,3186.9 3332,3270.5C 3345.57,3334.43 3344.57,3398.09 3329,3461.5C 3309.42,3524.89 3272.25,3575.05 3217.5,3612C 3194.41,3626.71 3169.41,3636.71 3142.5,3642C 3250.17,3655 3308,3715.5 3316,3823.5C 3316.04,3913.18 3316.71,4002.85 3318,4092.5C 3319.13,4113.43 3323.13,4133.76 3330,4153.5C 3332.53,4159.41 3335.7,4164.91 3339.5,4170C 3260.5,4170.67 3181.5,4170.67 3102.5,4170C 3095.16,4156.31 3089.99,4141.81 3087,4126.5C 3084.6,4113.59 3082.94,4100.59 3082,4087.5C 3081.05,4006.15 3080.05,3924.82 3079,3843.5C 3070.48,3780.31 3034.65,3744.48 2971.5,3736C 2960.86,3734.97 2950.19,3734.3 2939.5,3734C 2882.83,3733.5 2826.17,3733.33 2769.5,3733.5C 2769.5,3879.17 2769.5,4024.83 2769.5,4170.5C 2692.5,4170.5 2615.5,4170.5 2538.5,4170.5C 2538.5,3798.17 2538.5,3425.83 2538.5,3053.5 Z M 2769.5,3235.5 C 2832.17,3235.33 2894.83,3235.5 2957.5,3236C 3000.24,3237.97 3036.41,3254.13 3066,3284.5C 3089.02,3313.89 3099.85,3347.39 3098.5,3385C 3099.94,3440.43 3079.61,3485.76 3037.5,3521C 3013.15,3538.9 2985.82,3548.9 2955.5,3551C 2893.5,3551.5 2831.5,3551.67 2769.5,3551.5C 2769.5,3446.17 2769.5,3340.83 2769.5,3235.5 Z"/></g>
<g><path style="opacity:0.996" fill="#000000" d="M 3504.5,3053.5 C 3664.17,3053.33 3823.83,3053.5 3983.5,3054C 4036.66,3055.5 4088,3065.83 4137.5,3085C 4225.39,3122.53 4274.56,3189.03 4285,3284.5C 4289.78,3328.79 4286.45,3372.46 4275,3415.5C 4248.73,3498.1 4194.56,3553.27 4112.5,3581C 4100.71,3584.41 4088.71,3586.74 4076.5,3588C 4127.5,3591.66 4174.16,3607.66 4216.5,3636C 4274.47,3679.09 4306.64,3736.93 4313,3809.5C 4320.22,3875.06 4311.56,3938.39 4287,3999.5C 4263.46,4052.71 4226.3,4093.54 4175.5,4122C 4137.37,4143.04 4096.71,4156.71 4053.5,4163C 4030.62,4166.53 4007.62,4168.87 3984.5,4170C 3824.5,4170.5 3664.5,4170.67 3504.5,4170.5C 3504.5,3798.17 3504.5,3425.83 3504.5,3053.5 Z M 3730.5,3235.5 C 3791.84,3235.11 3853.18,3235.61 3914.5,3237C 3942.53,3238.34 3969.19,3245.01 3994.5,3257C 4027.6,3274.99 4046.43,3302.82 4051,3340.5C 4055.7,3373.59 4050.37,3404.92 4035,3434.5C 4012.81,3469.2 3981.31,3490.37 3940.5,3498C 3925.99,3501.12 3911.32,3503.12 3896.5,3504C 3841.17,3504.5 3785.83,3504.67 3730.5,3504.5C 3730.5,3414.83 3730.5,3325.17 3730.5,3235.5 Z M 3730.5,3685.5 C 3792.85,3685.05 3855.18,3685.55 3917.5,3687C 3956.91,3690.13 3992.57,3703.13 4024.5,3726C 4058.35,3755.82 4075.02,3793.48 4074.5,3839C 4071.93,3917.57 4032.26,3965.23 3955.5,3982C 3946.23,3983.77 3936.89,3985.1 3927.5,3986C 3861.85,3987.44 3796.18,3987.94 3730.5,3987.5C 3730.5,3886.83 3730.5,3786.17 3730.5,3685.5 Z"/></g>
<g><path style="opacity:0.996" fill="#000000" d="M 5604.5,3053.5 C 5735.5,3053.33 5866.5,3053.5 5997.5,3054C 6141.23,3061.94 6258.39,3121.11 6349,3231.5C 6407.7,3309.86 6444.03,3397.86 6458,3495.5C 6472.23,3594.34 6467.89,3692.34 6445,3789.5C 6420.15,3891.42 6369.98,3978.26 6294.5,4050C 6209.65,4124.75 6110.32,4164.75 5996.5,4170C 5865.83,4170.5 5735.17,4170.67 5604.5,4170.5C 5604.5,3798.17 5604.5,3425.83 5604.5,3053.5 Z M 5841.5,3235.5 C 5880.51,3235.15 5919.51,3235.65 5958.5,3237C 6033.6,3244.85 6095.1,3277.69 6143,3335.5C 6185.73,3391.33 6211.73,3454.33 6221,3524.5C 6230.84,3597.72 6227.84,3670.39 6212,3742.5C 6195.85,3809.87 6163.68,3868.04 6115.5,3917C 6069.34,3959.74 6014.67,3983.4 5951.5,3988C 5914.83,3988.5 5878.17,3988.67 5841.5,3988.5C 5841.5,3737.5 5841.5,3486.5 5841.5,3235.5 Z"/></g>
<g><path style="opacity:0.995" fill="#000000" d="M 6467.5,3054.5 C 6550.67,3053.17 6634,3053.17 6717.5,3054.5C 6781.1,3218.13 6844.6,3381.79 6908,3545.5C 6971.93,3381.97 7035.59,3218.31 7099,3054.5C 7182.43,3053.34 7265.93,3053.17 7349.5,3054C 7241.54,3297.43 7133.7,3540.93 7026,3784.5C 7025.5,3913.17 7025.33,4041.83 7025.5,4170.5C 6947.17,4170.5 6868.83,4170.5 6790.5,4170.5C 6790.67,4042.17 6790.5,3913.83 6790,3785.5C 6682.96,3541.52 6575.46,3297.86 6467.5,3054.5 Z"/></g>
<g><path style="opacity:0.984" fill="#000000" d="M 2100.5,4629.5 C 2131.78,4627.09 2162.11,4631.26 2191.5,4642C 2239.31,4664.09 2260.31,4701.59 2254.5,4754.5C 2228.17,4754.5 2201.83,4754.5 2175.5,4754.5C 2177.36,4739.67 2174.86,4725.67 2168,4712.5C 2158.55,4700.36 2146.05,4693.86 2130.5,4693C 2110.87,4690.58 2092.53,4694.25 2075.5,4704C 2061,4718.85 2058.83,4735.35 2069,4753.5C 2074.62,4760.13 2081.12,4765.63 2088.5,4770C 2100.17,4776.11 2112.17,4781.44 2124.5,4786C 2152.08,4794.79 2178.75,4805.79 2204.5,4819C 2249.16,4844.9 2266,4883.4 2255,4934.5C 2248.01,4960 2233.17,4979.5 2210.5,4993C 2189.28,5004.52 2166.62,5011.18 2142.5,5013C 2110.97,5016.27 2080.3,5012.61 2050.5,5002C 2009.31,4984.46 1987.14,4953.29 1984,4908.5C 1983.5,4900.17 1983.33,4891.84 1983.5,4883.5C 2010.17,4883.5 2036.83,4883.5 2063.5,4883.5C 2058.52,4926.51 2077.52,4948.84 2120.5,4950.5C 2137.57,4950.79 2153.57,4946.96 2168.5,4939C 2180.07,4927.55 2183.24,4914.05 2178,4898.5C 2172.55,4888.05 2164.72,4879.88 2154.5,4874C 2148.99,4870.75 2143.32,4867.75 2137.5,4865C 2114.05,4855.74 2090.39,4847.07 2066.5,4839C 2040.35,4828.82 2018.85,4812.66 2002,4790.5C 1987.75,4766.69 1983.09,4741.02 1988,4713.5C 1992.7,4689.61 2004.86,4670.44 2024.5,4656C 2047.65,4640.72 2072.98,4631.88 2100.5,4629.5 Z"/></g>
<g><path style="opacity:0.984" fill="#000000" d="M 2449.5,4629.5 C 2497.88,4625.69 2540.55,4639.19 2577.5,4670C 2610.81,4703.52 2629.31,4744.02 2633,4791.5C 2637.22,4831.16 2632.89,4869.82 2620,4907.5C 2601.18,4956.98 2566.68,4990.15 2516.5,5007C 2458.72,5022.95 2406.39,5012.62 2359.5,4976C 2324.01,4942.19 2304.18,4900.69 2300,4851.5C 2294.92,4808.44 2300.26,4766.78 2316,4726.5C 2342.4,4669.27 2386.9,4636.94 2449.5,4629.5 Z M 2454.5,4693.5 C 2497.82,4690.56 2527.32,4709.23 2543,4749.5C 2548.64,4765.01 2551.97,4781.01 2553,4797.5C 2555.71,4828.01 2553.05,4858.01 2545,4887.5C 2528.19,4935.81 2494.69,4955.65 2444.5,4947C 2422.69,4940.19 2406.53,4926.69 2396,4906.5C 2386.6,4886.91 2381.27,4866.25 2380,4844.5C 2378.4,4819.32 2379.73,4794.32 2384,4769.5C 2388.63,4746.73 2399.13,4727.23 2415.5,4711C 2427.14,4701.96 2440.14,4696.13 2454.5,4693.5 Z"/></g>
<g><path style="opacity:0.984" fill="#000000" d="M 5016.5,4629.5 C 5048.2,4627 5078.53,4632.17 5107.5,4645C 5156.47,4672.73 5182.13,4714.9 5184.5,4771.5C 5157.83,4771.5 5131.17,4771.5 5104.5,4771.5C 5105.14,4739.93 5092.14,4716.1 5065.5,4700C 5017.51,4683.77 4983.01,4698.6 4962,4744.5C 4952.73,4769.14 4948.57,4794.64 4949.5,4821C 4948.55,4848.47 4953.05,4874.97 4963,4900.5C 4979.15,4937.49 5007.31,4953.66 5047.5,4949C 5071.61,4943.56 5088.44,4929.4 5098,4906.5C 5102.54,4895.28 5104.71,4883.61 5104.5,4871.5C 5131.17,4871.5 5157.83,4871.5 5184.5,4871.5C 5181.99,4927.44 5156.66,4969.27 5108.5,4997C 5084.78,5009.01 5059.62,5014.51 5033,5013.5C 4959.49,5012.65 4909.49,4977.98 4883,4909.5C 4863.38,4849.71 4863.72,4790.04 4884,4730.5C 4908.18,4670.47 4952.35,4636.81 5016.5,4629.5 Z"/></g>
<g><path style="opacity:0.984" fill="#000000" d="M 2685.5,4634.5 C 2711.83,4634.5 2738.17,4634.5 2764.5,4634.5C 2764.33,4718.17 2764.5,4801.83 2765,4885.5C 2767.82,4936.97 2794.66,4957.8 2845.5,4948C 2861.65,4943.85 2872.82,4934.02 2879,4918.5C 2883.87,4903.89 2886.37,4888.89 2886.5,4873.5C 2885.49,4794.66 2885.32,4715.33 2886,4635.5C 2912.43,4634.51 2938.93,4634.17 2965.5,4634.5C 2965.67,4716.17 2965.5,4797.83 2965,4879.5C 2963.75,4958.74 2923.92,5003.24 2845.5,5013C 2809.6,5017.29 2775.6,5011.29 2743.5,4995C 2714.83,4977.64 2697,4952.47 2690,4919.5C 2688.11,4910.92 2686.77,4902.25 2686,4893.5C 2685.5,4807.17 2685.33,4720.83 2685.5,4634.5 Z"/></g>
<g><path style="opacity:0.982" fill="#000000" d="M 3012.5,4634.5 C 3099.83,4634.5 3187.17,4634.5 3274.5,4634.5C 3274.5,4655.17 3274.5,4675.83 3274.5,4696.5C 3243.83,4696.5 3213.17,4696.5 3182.5,4696.5C 3182.5,4800.17 3182.5,4903.83 3182.5,5007.5C 3156.17,5007.5 3129.83,5007.5 3103.5,5007.5C 3103.5,4903.83 3103.5,4800.17 3103.5,4696.5C 3073.17,4696.5 3042.83,4696.5 3012.5,4696.5C 3012.5,4675.83 3012.5,4655.17 3012.5,4634.5 Z"/></g>
<g><path style="opacity:0.987" fill="#000000" d="M 3321.5,4634.5 C 3347.83,4634.5 3374.17,4634.5 3400.5,4634.5C 3400.5,4686.83 3400.5,4739.17 3400.5,4791.5C 3445.17,4791.5 3489.83,4791.5 3534.5,4791.5C 3534.5,4739.17 3534.5,4686.83 3534.5,4634.5C 3560.83,4634.5 3587.17,4634.5 3613.5,4634.5C 3613.5,4758.83 3613.5,4883.17 3613.5,5007.5C 3587.17,5007.5 3560.83,5007.5 3534.5,5007.5C 3534.5,4955.83 3534.5,4904.17 3534.5,4852.5C 3489.83,4852.5 3445.17,4852.5 3400.5,4852.5C 3400.5,4904.17 3400.5,4955.83 3400.5,5007.5C 3373.83,5007.5 3347.17,5007.5 3320.5,5007.5C 3320.17,4883.1 3320.5,4758.76 3321.5,4634.5 Z"/></g>
<g><path style="opacity:0.987" fill="#000000" d="M 3875.5,4634.5 C 3917.41,4634.17 3959.24,4634.5 4001,4635.5C 4031.82,4759.44 4062.32,4883.44 4092.5,5007.5C 4065.5,5007.5 4038.5,5007.5 4011.5,5007.5C 4005.17,4978.83 3998.83,4950.17 3992.5,4921.5C 3956.17,4921.5 3919.83,4921.5 3883.5,4921.5C 3877.17,4950.17 3870.83,4978.83 3864.5,5007.5C 3837.16,5007.67 3809.83,5007.5 3782.5,5007C 3814.05,4882.99 3845.05,4758.82 3875.5,4634.5 Z M 3937.5,4687.5 C 3938.12,4687.61 3938.62,4687.94 3939,4688.5C 3952,4745.48 3964.83,4802.48 3977.5,4859.5C 3951.17,4859.5 3924.83,4859.5 3898.5,4859.5C 3911.76,4802.22 3924.76,4744.89 3937.5,4687.5 Z"/></g>
<g><path style="opacity:0.987" fill="#000000" d="M 4135.5,4634.5 C 4211.83,4634.5 4288.17,4634.5 4364.5,4634.5C 4364.5,4655.17 4364.5,4675.83 4364.5,4696.5C 4314.5,4696.5 4264.5,4696.5 4214.5,4696.5C 4214.5,4729.5 4214.5,4762.5 4214.5,4795.5C 4257.17,4795.5 4299.83,4795.5 4342.5,4795.5C 4342.5,4815.83 4342.5,4836.17 4342.5,4856.5C 4299.83,4856.5 4257.17,4856.5 4214.5,4856.5C 4214.5,4906.83 4214.5,4957.17 4214.5,5007.5C 4188.17,5007.5 4161.83,5007.5 4135.5,5007.5C 4135.5,4883.17 4135.5,4758.83 4135.5,4634.5 Z"/></g>
<g><path style="opacity:0.988" fill="#000000" d="M 4418.5,4634.5 C 4471.17,4634.33 4523.83,4634.5 4576.5,4635C 4659.05,4638.56 4694.88,4681.4 4684,4763.5C 4676.59,4797.52 4656.42,4820.02 4623.5,4831C 4659.96,4838.13 4678.12,4860.29 4678,4897.5C 4678.33,4926.5 4678.67,4955.5 4679,4984.5C 4679.15,4992.61 4681.32,5000.11 4685.5,5007C 4658.83,5007.83 4632.16,5007.67 4605.5,5006.5C 4601.07,4995.98 4598.9,4984.98 4599,4973.5C 4598.67,4948.17 4598.33,4922.83 4598,4897.5C 4594.82,4877.15 4582.99,4865.65 4562.5,4863C 4540.17,4862.5 4517.84,4862.33 4495.5,4862.5C 4495.5,4910.83 4495.5,4959.17 4495.5,5007.5C 4469.83,5007.5 4444.17,5007.5 4418.5,5007.5C 4418.5,4883.17 4418.5,4758.83 4418.5,4634.5 Z M 4495.5,4695.5 C 4518.52,4695.16 4541.52,4695.66 4564.5,4697C 4591.19,4702.19 4604.52,4718.35 4604.5,4745.5C 4605,4766.33 4596.67,4782.5 4579.5,4794C 4573.82,4796.92 4567.82,4798.92 4561.5,4800C 4539.5,4800.5 4517.5,4800.67 4495.5,4800.5C 4495.5,4765.5 4495.5,4730.5 4495.5,4695.5 Z"/></g>
<g><path style="opacity:0.976" fill="#000000" d="M 4740.5,4634.5 C 4766.5,4634.5 4792.5,4634.5 4818.5,4634.5C 4818.5,4758.83 4818.5,4883.17 4818.5,5007.5C 4792.17,5007.5 4765.83,5007.5 4739.5,5007.5C 4739.17,4883.1 4739.5,4758.76 4740.5,4634.5 Z"/></g>
<g><path style="opacity:0.987" fill="#000000" d="M 5295.5,4634.5 C 5337.17,4634.5 5378.83,4634.5 5420.5,4634.5C 5450.85,4758.57 5481.52,4882.57 5512.5,5006.5C 5485.51,5007.67 5458.51,5007.83 5431.5,5007C 5424.77,4978.87 5418.11,4950.71 5411.5,4922.5C 5375.5,4921.17 5339.5,4921.17 5303.5,4922.5C 5296.83,4950.5 5290.17,4978.5 5283.5,5006.5C 5256.51,5007.5 5229.51,5007.83 5202.5,5007.5C 5233.03,4883.03 5264.03,4758.7 5295.5,4634.5 Z M 5357.5,4686.5 C 5370.8,4743.72 5384.14,4801.05 5397.5,4858.5C 5370.84,4859.67 5344.17,4859.83 5317.5,4859C 5331.15,4801.59 5344.48,4744.09 5357.5,4686.5 Z"/></g>
</svg>